<?xml version="1.0" encoding="UTF-8"?>
<svg id="_レイヤー_1" data-name="レイヤー_1" xmlns="http://www.w3.org/2000/svg" viewBox="0 0 40.0174433 39.9188928">
  <defs>
    <style>
      .cls-1 {
        fill: none;
        stroke: #e83f84;
        stroke-miterlimit: 10;
        stroke-width: 5px;
      }

      .cls-1, .cls-2, .cls-3, .cls-4, .cls-5 {
        stroke-linecap: round;
      }

      .cls-2 {
        fill: #efd8e4;
        stroke: #c1a7b6;
      }

      .cls-2, .cls-3 {
        stroke-width: 1.0043391px;
      }

      .cls-2, .cls-3, .cls-4, .cls-5 {
        stroke-linejoin: round;
      }

      .cls-3, .cls-4, .cls-5 {
        fill: #fcf0f6;
        stroke: #e5b7cf;
      }

      .cls-4 {
        stroke-width: 1.0249359px;
      }

      .cls-5 {
        stroke-width: 1.033168px;
      }
    </style>
  </defs>
  <path class="cls-5" d="M1.6956378,22.941806S-1.016356,1.7221114,13.4396957,2.1793263c14.4560517.4572149,10.6991273,8.352362,10.6991273,8.352362l-13.795958,16.9169499L1.6956378,22.941806Z"/>
  <path class="cls-3" d="M23.1320564,4.5337445s9.1276596-8.8085106,13.9787234.0638298.893617,13.9787234.7021277,16.2765957-17.3510638,6.835667-17.3510638,6.835667l6.4361702-18.1973691-3.7659574-4.9787234Z"/>
  <path class="cls-4" d="M13.1107798,29.9360407s-10.212766-8.5087554-3.8297872-21.1389391C15.6639713-3.8330821,24.6639713.8201435,27.6639713,4.3433s10.7234043,12.6301837,4.0212766,19.6100221c-6.7021277,6.9798384-18.5744681,5.9827186-18.5744681,5.9827186Z"/>
  <path class="cls-2" d="M16.1927048,28.7769884s.0144884-8.8691812,4.2124857-6.341361l2.5274914,1.5219266s6.3079272-12.4290675,16.4394953-6.2145338c0,0,.7344847,13.4436853-16.4394953,16.8680202,0,0,1.6849943,2.917026,6.3511322,3.0438533l-.5184598,1.5007888s-4.4717155,1.7967189-10.5636179-4.0373332c0,0-14.4520662-.8243769-17.4980173-11.6046906-.5832672-2.7901988.0648075-2.3463036,2.3978764-1.5853402s9.3970834,3.1072669,13.0911093,6.8486698Z"/>
  <line class="cls-1" x1="9.7164947" y1="9.7252338" x2="30.1624121" y2="9.7252305"/>
  <line class="cls-1" x1="9.7164947" y1="18.0231062" x2="30.1624121" y2="18.0231028"/>
  <line class="cls-1" x1="9.7164947" y1="26.9167232" x2="30.1624121" y2="26.9167198"/>
</svg>