<?xml version="1.0" encoding="UTF-8"?>
<svg id="_レイヤー_1" data-name="レイヤー_1" xmlns="http://www.w3.org/2000/svg" viewBox="0 0 39.9806033 39.8723404">
  <defs>
    <style>
      .cls-1 {
        fill: none;
        stroke: #e83f84;
        stroke-linecap: round;
        stroke-width: 5px;
      }

      .cls-1, .cls-2 {
        stroke-miterlimit: 10;
      }

      .cls-2 {
        fill: #fcf0f6;
        stroke: #e5b7cf;
      }
    </style>
  </defs>
  <path class="cls-2" d="M39.1084279,14.7093533c-1.240573-3.9177156-5.3196641-6.2809009-10.1381123-6.3760869-1.5912323-4.6240996-5.0223229-7.8332664-9.0107604-7.8332664-4.0144572,0-7.4653024,3.2504293-9.0425339,7.9234012-4.7775966.1239846-8.8122559,2.4806754-10.0447097,6.3729381-1.240573,3.9177812.7057297,8.2898445,4.5494923,11.2730838-1.3614658,4.7007864-.4239237,9.366411,2.8027808,11.7719085,3.2478016,2.4213071,7.9014368,1.8730198,11.854265-.9562556,3.9361422,2.7813216,8.5502684,3.308092,11.7769729.9025289,3.2477377-2.4213071,4.1776081-7.1323272,2.776825-11.8640769,3.7941524-2.9817961,5.7082342-7.3218464,4.4757803-11.2141747Z"/>
  <line class="cls-1" x1="12.7615782" y1="14.3351064" x2="27.219025" y2="28.7925532"/>
  <line class="cls-1" x1="12.7615782" y1="28.7925532" x2="27.219025" y2="14.3351064"/>
</svg>