<?xml version="1.0" encoding="UTF-8"?>
<svg id="_レイヤー_1" data-name="レイヤー_1" xmlns="http://www.w3.org/2000/svg" width="59.4355787" height="59.4355787" viewBox="0 0 59.4355787 59.4355787">
  <defs>
    <style>
      .cls-1 {
        fill: #f987b0;
      }

      .cls-2 {
        fill: #a84580;
      }

      .cls-3 {
        fill: #ffeea4;
      }

      .cls-4 {
        fill: none;
        stroke: #a84580;
        stroke-linecap: round;
        stroke-linejoin: round;
        stroke-width: 4.1214091px;
      }
    </style>
  </defs>
  <g>
    <path class="cls-3" d="M29.71779,58.9355634C13.6069502,58.9355634.5000166,45.8281416.5000166,29.71779.5000166,13.6069502,13.6069502.5000166,29.71779.5000166c16.1103516,0,29.2177734,13.1069336,29.2177734,29.2177734,0,16.1103516-13.1074219,29.2177734-29.2177734,29.2177734Z"/>
    <path class="cls-1" d="M29.71779,1c15.835041,0,28.7177887,12.8827499,28.7177887,28.71779s-12.8827477,28.7177887-28.7177887,28.7177887S1,45.5528311,1,29.71779,13.8827499,1,29.71779,1M29.71779,0C13.3051103,0,0,13.3051103,0,29.71779s13.3051103,29.7177887,29.71779,29.7177887,29.7177887-13.3051071,29.7177887-29.7177887S46.1304716,0,29.71779,0h0Z"/>
  </g>
  <polyline class="cls-4" points="18.4007296 19.9815757 30.0220793 6.9754407 41.1908814 20.0744859"/>
  <polyline class="cls-4" points="18.8227141 30.8913293 30.4440638 17.8851944 41.6128659 30.9842395"/>
  <g>
    <path class="cls-2" d="M22.1562666,39.4326338c0,.4257812-.0664062.8027344-.1992188,1.1308594s-.3261719.6044922-.5800781.8291016-.5654297.3955078-.9345703.5126953-.8037109.1757812-1.3037109.1757812h-.6328125v2.4199219c0,.0390625-.0126953.0742188-.0380859.1054688s-.0673828.0566406-.1259766.0761719-.1367188.0351562-.234375.046875-.2226562.0175781-.375.0175781c-.1484375,0-.2724609-.0058594-.3720703-.0175781s-.1787109-.0273438-.2373047-.046875-.0996094-.0449219-.1230469-.0761719-.0351562-.0664062-.0351562-.1054688v-6.8203125c0-.1835938.0478516-.3212891.1435547-.4130859s.2216797-.1376953.3779297-.1376953h1.7871094c.1796875,0,.3505859.0068359.5126953.0205078s.3564453.0429688.5830078.0878906.4560547.1279297.6884766.2490234.4306641.2744141.5947266.4599609.2890625.4023438.375.6503906.1289062.5263672.1289062.8349609ZM20.5449384,39.5439619c0-.265625-.046875-.484375-.140625-.65625s-.2089844-.2988281-.3457031-.3808594-.2802734-.1337891-.4306641-.1552734-.3056641-.0322266-.4658203-.0322266h-.65625v2.5722656h.6914062c.2460938,0,.4521484-.0332031.6181641-.0996094s.3017578-.1591797.4072266-.2783203.1855469-.2617188.2402344-.4277344.0820312-.3466797.0820312-.5419922Z"/>
    <path class="cls-2" d="M29.5625166,44.1377119c.046875.140625.0761719.2519531.0878906.3339844s-.0039062.1435547-.046875.1845703-.1191406.0664062-.2285156.0761719-.2597656.0146484-.4511719.0146484c-.1992188,0-.3544922-.0029297-.4658203-.0087891s-.1962891-.0175781-.2548828-.0351562-.0996094-.0419922-.1230469-.0732422-.0429688-.0722656-.0585938-.1230469l-.5097656-1.5234375h-2.8476562l-.4804688,1.4824219c-.015625.0546875-.0361328.1005859-.0615234.1376953s-.0664062.0664062-.1230469.0878906-.1367188.0361328-.2402344.0439453-.2392578.0117188-.4072266.0117188c-.1796875,0-.3203125-.0058594-.421875-.0175781s-.171875-.0400391-.2109375-.0849609-.0527344-.1083984-.0410156-.1904297.0410156-.1914062.0878906-.328125l2.3378906-6.7265625c.0234375-.0664062.0507812-.1201172.0820312-.1611328s.0810547-.0722656.1494141-.09375.1630859-.0351562.2841797-.0410156.28125-.0087891.4804688-.0087891c.2304688,0,.4140625.0029297.5507812.0087891s.2431641.0195312.3193359.0410156.1308594.0537109.1640625.0966797.0615234.1015625.0849609.1757812l2.34375,6.7207031ZM26.0820478,38.577165h-.0058594l-1.0722656,3.2226562h2.1503906l-1.0722656-3.2226562Z"/>
    <path class="cls-2" d="M36.7050947,38.3076338c0,.1132812-.0048828.2109375-.0146484.2929688s-.0234375.1474609-.0410156.1962891-.0390625.0830078-.0644531.1025391-.0556641.0292969-.0908203.0292969c-.0507812,0-.1328125-.0351562-.2460938-.1054688s-.2636719-.1464844-.4511719-.2285156-.4111328-.1582031-.6708984-.2285156-.5615234-.1054688-.9052734-.1054688c-.3671875,0-.6992188.0634766-.9960938.1904297s-.5507812.3066406-.7617188.5390625-.3730469.5117188-.4863281.8378906-.1699219.6865234-.1699219,1.0810547c0,.4335938.0576172.8154297.1728516,1.1455078s.2763672.6064453.4833984.8291016.4560547.390625.7470703.5039062.6123047.1699219.9638672.1699219c.171875,0,.3417969-.0195312.5097656-.0585938s.3242188-.0976562.46875-.1757812v-1.7578125h-1.4355469c-.0703125,0-.125-.0439453-.1640625-.1318359s-.0585938-.2373047-.0585938-.4482422c0-.109375.0048828-.2011719.0146484-.2753906s.0244141-.1337891.0439453-.1787109.0429688-.078125.0703125-.0996094.0585938-.0322266.09375-.0322266h2.5605469c.0625,0,.1181641.0107422.1669922.0322266s.0917969.0537109.1289062.0966797.0654297.0947266.0849609.1552734.0292969.1298828.0292969.2080078v3.0175781c0,.1171875-.0205078.2197266-.0615234.3076172s-.125.1572266-.2519531.2080078-.2841797.1035156-.4716797.1582031-.3818359.1015625-.5830078.140625-.4042969.0683594-.609375.0878906-.4111328.0292969-.6181641.0292969c-.6054688,0-1.1474609-.0869141-1.6259766-.2607422s-.8837891-.4257812-1.2158203-.7558594-.5859375-.7324219-.7617188-1.2070312-.2636719-1.0126953-.2636719-1.6142578c0-.6210938.09375-1.1787109.28125-1.6728516s.453125-.9140625.796875-1.2597656.7587891-.6103516,1.2451172-.7939453,1.0283203-.2753906,1.6259766-.2753906c.328125,0,.6269531.0224609.8964844.0673828s.5048828.0996094.7060547.1640625.3681641.1337891.5009766.2080078.2255859.1386719.2783203.1933594.0908203.1318359.1142578.2314453.0351562.2470703.0351562.4423828Z"/>
    <path class="cls-2" d="M42.7636884,44.108415c0,.1132812-.0048828.2080078-.0146484.2841797s-.0244141.1376953-.0439453.1845703-.0439453.0810547-.0732422.1025391-.0615234.0322266-.0966797.0322266h-3.8085938c-.1289062,0-.2373047-.0380859-.3251953-.1142578s-.1318359-.2001953-.1318359-.3720703v-6.609375c0-.171875.0439453-.2958984.1318359-.3720703s.1962891-.1142578.3251953-.1142578h3.7851562c.0351562,0,.0664062.0097656.09375.0292969s.0507812.0537109.0703125.1025391.0341797.1113281.0439453.1875.0146484.1728516.0146484.2900391c0,.109375-.0048828.2021484-.0146484.2783203s-.0244141.1376953-.0439453.1845703-.0429688.0810547-.0703125.1025391-.0585938.0322266-.09375.0322266h-2.7070312v1.8515625h2.2910156c.0351562,0,.0673828.0107422.0966797.0322266s.0537109.0546875.0732422.0996094.0341797.1054688.0439453.1816406.0146484.1689453.0146484.2783203c0,.1132812-.0048828.2070312-.0146484.28125s-.0244141.1337891-.0439453.1787109-.0439453.0771484-.0732422.0966797-.0615234.0292969-.0966797.0292969h-2.2910156v2.1386719h2.7304688c.0351562,0,.0673828.0107422.0966797.0322266s.0537109.0556641.0732422.1025391.0341797.1083984.0439453.1845703.0146484.1708984.0146484.2841797Z"/>
    <path class="cls-2" d="M25.3672041,46.7627119c0,.1132812-.0048828.2099609-.0146484.2900391s-.0244141.1445312-.0439453.1933594-.0439453.0849609-.0732422.1083984-.0615234.0351562-.0966797.0351562h-1.8984375v6.1113281c0,.0390625-.0126953.0742188-.0380859.1054688s-.0673828.0566406-.1259766.0761719-.1376953.0351562-.2373047.046875-.2236328.0175781-.3720703.0175781-.2724609-.0058594-.3720703-.0175781-.1787109-.0273438-.2373047-.046875-.1005859-.0449219-.1259766-.0761719-.0380859-.0664062-.0380859-.1054688v-6.1113281h-1.8984375c-.0390625,0-.0722656-.0117188-.0996094-.0351562s-.0507812-.0595703-.0703125-.1083984-.0341797-.1132812-.0439453-.1933594-.0146484-.1767578-.0146484-.2900391c0-.1171875.0048828-.2167969.0146484-.2988281s.0244141-.1474609.0439453-.1962891.0429688-.0839844.0703125-.1054688.0605469-.0322266.0996094-.0322266h5.34375c.0351562,0,.0673828.0107422.0966797.0322266s.0537109.0566406.0732422.1054688.0341797.1142578.0439453.1962891.0146484.1816406.0146484.2988281Z"/>
    <path class="cls-2" d="M33.0840009,49.8330244c0,.6289062-.078125,1.1914062-.234375,1.6875s-.3886719.9169922-.6972656,1.2626953-.6904297.609375-1.1455078.7910156-.9814453.2724609-1.5791016.2724609c-.5898438,0-1.1044922-.0771484-1.5439453-.2314453s-.8056641-.3896484-1.0986328-.7060547-.5126953-.71875-.6591797-1.2070312-.2197266-1.0664062-.2197266-1.734375c0-.6132812.078125-1.1650391.234375-1.6552734s.3886719-.9072266.6972656-1.2509766.6904297-.6074219,1.1455078-.7910156.9833984-.2753906,1.5849609-.2753906c.5742188,0,1.0810547.0761719,1.5205078.2285156s.8066406.3867188,1.1015625.703125.5175781.7158203.6679688,1.1982422.2255859,1.0517578.2255859,1.7080078ZM31.4668134,49.9150556c0-.3984375-.03125-.7607422-.09375-1.0869141s-.1689453-.6054688-.3193359-.8378906-.3505859-.4121094-.6005859-.5390625-.5625-.1904297-.9375-.1904297c-.3789062,0-.6953125.0712891-.9492188.2138672s-.4589844.3330078-.6152344.5712891-.2666016.5166016-.3310547.8349609-.0966797.6552734-.0966797,1.0107422c0,.4140625.03125.7861328.09375,1.1162109s.1679688.6123047.3164062.8466797.3476562.4130859.5976562.5361328.5644531.1845703.9433594.1845703.6953125-.0703125.9492188-.2109375.4589844-.3320312.6152344-.5742188.2666016-.5244141.3310547-.8466797.0966797-.6650391.0966797-1.0283203Z"/>
    <path class="cls-2" d="M39.5703291,48.4326338c0,.4257812-.0664062.8027344-.1992188,1.1308594s-.3261719.6044922-.5800781.8291016-.5654297.3955078-.9345703.5126953-.8037109.1757812-1.3037109.1757812h-.6328125v2.4199219c0,.0390625-.0126953.0742188-.0380859.1054688s-.0673828.0566406-.1259766.0761719-.1367188.0351562-.234375.046875-.2226562.0175781-.375.0175781c-.1484375,0-.2724609-.0058594-.3720703-.0175781s-.1787109-.0273438-.2373047-.046875-.0996094-.0449219-.1230469-.0761719-.0351562-.0664062-.0351562-.1054688v-6.8203125c0-.1835938.0478516-.3212891.1435547-.4130859s.2216797-.1376953.3779297-.1376953h1.7871094c.1796875,0,.3505859.0068359.5126953.0205078s.3564453.0429688.5830078.0878906.4560547.1279297.6884766.2490234.4306641.2744141.5947266.4599609.2890625.4023438.375.6503906.1289062.5263672.1289062.8349609ZM37.9590009,48.5439619c0-.265625-.046875-.484375-.140625-.65625s-.2089844-.2988281-.3457031-.3808594-.2802734-.1337891-.4306641-.1552734-.3056641-.0322266-.4658203-.0322266h-.65625v2.5722656h.6914062c.2460938,0,.4521484-.0332031.6181641-.0996094s.3017578-.1591797.4072266-.2783203.1855469-.2617188.2402344-.4277344.0820312-.3466797.0820312-.5419922Z"/>
  </g>
</svg>