<?xml version="1.0" encoding="UTF-8"?>
<svg id="_レイヤー_1" data-name="レイヤー_1" xmlns="http://www.w3.org/2000/svg" width="40.143617" height="14.410977" viewBox="0 0 40.143617 14.410977">
  <defs>
    <style>
      .cls-1 {
        fill: #f9f98f;
      }
    </style>
  </defs>
  <rect class="cls-1" y="8.2833174" width="40.143617" height="6.1276596"/>
  <g>
    <path d="M2.6553669,6.6323242h.2758789c.0595703,1.6191406.4794922,2.6743164,3.0219727,2.6743164,1.9311523,0,2.8427734-.503418,3.1665039-.503418.3837891,0,.9594727.2158203.9594727.6235352,0,.3115234-.1318359.4438477-.5878906.6118164-.6118164.2036133-1.7509766.3837891-3.262207.3837891-3.3100586,0-4.1376953-1.5712891-3.5737305-3.7900391ZM5.9893513,3.3100586c.1079102-.0839844.0957031-.1201172-.0600586-.1318359-1.3071289-.0239258-2.2666016-.144043-2.9023438-1.2832031l.1557617-.1679688c.7558594.503418,1.2836914.6113281,2.2426758.6113281,1.5112305,0,1.7993164-.2875977,2.3388672-.2875977.515625,0,1.3076172.3237305,1.3076172.6958008,0,.2875977-.15625.4316406-.5400391.503418-.3598633.0600586-.7675781.1201172-1.2832031.2880859-.659668.2036133-1.7509766.6713867-2.7104492,1.1152344l-.1318359-.2041016c.5273438-.3598633,1.1992188-.8515625,1.5830078-1.1391602ZM9.7554646,2.3144531c-.2280273-.3115234-.5400391-.7192383-1.0795898-1.1513672l.1318359-.1918945c.6479492.2158203,1.1635742.4677734,1.4990234.7797852.2758789.2519531.3720703.4677734.3720703.7075195,0,.2280273-.1557617.371582-.3720703.371582-.1918945-.0117188-.3354492-.2158203-.5512695-.515625ZM10.8467732,1.4389648c-.2397461-.2758789-.515625-.5996094-1.1035156-1.043457l.1318359-.1679688c.6479492.1679688,1.1513672.3720703,1.4750977.6240234.3120117.2397461.4199219.4794922.4199219.7436523,0,.2397461-.1201172.371582-.3359375.371582s-.3476562-.2280273-.5874023-.527832Z"/>
    <path d="M18.6968708,4.6772461c-.3598633-.6118164-1.3671875-1.6191406-2.7705078-2.3505859l.0600586-.15625c1.1992188.1323242,2.0390625.3959961,2.6147461.7080078.659668-.4560547,1.4511719-1.0795898,1.9907227-1.5834961h-6.3085938l-.1079102-.3354492h6.6083984l.7197266-.659668,1.1513672,1.1030273c-.0961914.0961914-.2402344.1201172-.515625.1323242-.7919922.4916992-2.1708984,1.1030273-3.2744141,1.4990234.9355469.6235352.9233398,1.3793945.5517578,1.6430664h2.6625977l.7075195-.6958008,1.1992188,1.1396484c-.0957031.0957031-.2397461.1318359-.503418.144043-.684082.7553711-1.9550781,1.7626953-2.9384766,2.3505859l-.1079102-.0961914c.5273438-.6713867,1.2231445-1.7270508,1.6308594-2.5063477h-3.1542969v4.6171875c0,.8276367-.2397461,1.4033203-1.7988281,1.5234375-.0361328-.3720703-.1318359-.659668-.3598633-.8398438-.2519531-.1796875-.6118164-.3237305-1.3793945-.4194336v-.1679688s1.7270508.1079102,2.0507812.1079102c.2280273,0,.3120117-.0839844.3120117-.2519531v-4.5693359h-4.8691406l-.1079102-.3359375h5.9365234Z"/>
    <path d="M26.8111287,6.9921875v-1.2714844l-1.3911133.3598633c-.0722656.144043-.1918945.2397461-.3242188.2519531l-.3354492-1.1635742,1.4150391-.0600586c.7075195-1.1152344,1.4394531-2.5664062,1.8828125-3.6459961l1.4633789.5639648c-.0600586.1318359-.2158203.2275391-.4677734.1918945-.5874023.8393555-1.5112305,1.9667969-2.4584961,2.8662109l1.9189453-.1318359c-.1801758-.3598633-.3720703-.6958008-.5639648-.9716797l.1323242-.0717773c.5874023.2397461,1.0073242.527832,1.2832031.8037109.5996094-1.175293,1.1391602-2.9506836,1.4033203-4.6533203l1.5830078.4672852c-.0478516.144043-.1918945.2519531-.4438477.2519531-.2158203.6357422-.4677734,1.2353516-.7553711,1.7993164h2.9741211l.6474609-.6835938,1.1513672.9951172c-.0957031.1079102-.2636719.1918945-.5273438.2158203-.1201172,4.1259766-.3720703,6.6923828-1.043457,7.4121094-.4077148.4199219-.9238281.6113281-1.6791992.6113281,0-.3720703-.0600586-.6713867-.2758789-.8393555-.2280273-.2036133-.8037109-.371582-1.4033203-.4916992l.012207-.1796875c.6357422.0600586,1.6430664.144043,1.9545898.144043.2519531,0,.3598633-.0483398.4921875-.1679688.4672852-.4321289.6953125-3.0585938.8032227-6.668457h-3.2983398c-.4194336.7553711-.9111328,1.4272461-1.4628906,1.9428711.7792969.9594727.0957031,1.8588867-.5996094,1.2832031-.0361328-.2875977-.1318359-.6113281-.2641602-.9233398l-.7792969.2158203v5.3730469c0,.0712891-.3359375.3232422-.8637695.3232422h-.1796875v-4.0649414c-.0361328.1079102-.1679688.1796875-.3720703.1918945-.371582,1.1030273-.8994141,2.1586914-1.559082,2.8540039l-.1796875-.1079102c.3598633-.8632812.6713867-2.1464844.8037109-3.3461914l1.3071289.3242188ZM26.0074177,2.2543945c.2519531-.6352539.515625-1.4750977.7197266-2.2543945l1.5229492.5273438c-.0478516.1323242-.2036133.2402344-.4677734.2280273-.4194336.6118164-.9350586,1.2236328-1.4389648,1.690918,1.0795898.7675781.4677734,1.8354492-.2880859,1.331543-.1435547-.6118164-.6953125-1.331543-1.1513672-1.7631836l.1083984-.0957031c.4077148.0839844.7314453.2036133.9951172.3354492ZM28.8140583,8.9350586c-.0361328-.7436523-.3959961-1.6669922-.7314453-2.2910156l.1435547-.0717773c2.5307617,1.3071289,1.4995117,3.2143555.5878906,2.362793ZM31.7881794,7.1118164c-.0600586-.8632812-.5874023-1.8950195-1.0673828-2.5786133l.1318359-.0717773c2.9985352,1.3071289,1.9672852,3.5620117.9355469,2.6503906Z"/>
  </g>
</svg>