<!--?xml version="1.0" encoding="utf-8"?-->
<svg version="1.1" x="0px" y="0px" id="iconz1860212311324000" viewBox="0 0 512 512" xmlns="http://www.w3.org/2000/svg" style="enable-background:new 0 0 512 512;" xml:space="preserve"><style type="text/css">
.baseF{fill:#FFFFFF}
.baseB{fill:#232256}
.eyeF{fill:#FFFFFF}
.eyeB{fill:#232256}
.eyeT{fill:#BDC7D6}
.hairF{fill:#FFFFFF}
.hairB{fill:#232256}
.hairU{fill:#5E7AA5}
.hairT{fill:#BDC7D6}
.noseF{fill:#FFFFFF}
.noseB{fill:#232256}
.noseU{fill:#5E7AA5}
.mayugeB{fill:#232256}
.mayugeU{fill:#5E7AA5}
.mayugeT{fill:#BDC7D6}
.mayugeF{fill:#FFFFFF}
.mouthF{fill:#FFFFFF}
.mouthB{fill:#232256}
.mouthT{fill:#BDC7D6}
.mouthU{fill:#5E7AA5}
.hatF{fill:#FFFFFF}
.hatB{fill:#232256}
.hatU{fill:#5E7AA5}
.hatT{fill:#BDC7D6}
.higeU{fill:#5E7AA5}
.higeB{fill:#232256}
.higeF{fill:#FFFFFF}
.bodyF{fill:#FFFFFF}
.bodyB{fill:#232256}
.bodyU{fill:#5E7AA5}
.bodyT{fill:#BDC7D6}
.bodyS{fill:#8DA6C9}
.bodyH{fill:#FFFFFF}
.glassF{fill:#FFFFFF}
.glassB{fill:#232256}
.glassT{fill:#BDC7D6}
.glassU{fill:#5E7AA5}
.kirakiraF{fill:#FFFFFF}
.kirakiraB{fill:#232256}
.kirakiraU{fill:#5E7AA5}
.kirakiraT{fill:#BDC7D6}
.kirakiraH{fill:#FFFFFF}
.backF{fill:#FFFFFF}
.backB{fill:#232256}
.backU{fill:#5E7AA5}
.backS{fill:#8DA6C9}
.backA{fill:#FFE38B}
.backG{fill:#EEEEEF}
.backC{fill:#19DB9F}
.backD{fill:#DBBCA1}
</style>
<g class="icosvg">
<g>
	<rect x="-134" y="-134" class="backA" width="780" height="780"></rect>
</g>


<g>
	<path class="bodyU" d="M462.893,571.449c0,31.825,0,73.968,0,73.968H49.109c0,0,0-42.143,0-73.968   c-4.424-117.085,58.513-168.835,129.769-200.784c10.104-5.448,15.335-8.135,27.816-9.6c9.888-1.152,24.312-1.535,49.32-1.871   c25.008,0.336,39.431,0.72,49.296,1.871c12.48,1.465,17.712,4.152,27.816,9.6C404.405,402.524,467.406,454.701,462.893,571.449z"></path>
	<path class="bodyT" d="M363.635,645.417V474.778c0-52.369-46.289-115.591-107.632-115.591c-61.345,0-107.634,63.223-107.634,115.591   v170.639"></path>
	<path class="bodyB" d="M369.089,645.416V474.777c-0.004-13.897-3.057-28.313-8.579-42.173   c-37.794-92.395-144.894-108.626-198.927-20.238c-11.821,19.55-18.654,41.567-18.669,62.411v170.639   c0,3.013,2.442,5.455,5.454,5.455c3.012,0,5.454-2.442,5.454-5.455l-0.001-170.639c-0.004-12.287,2.729-25.412,7.804-38.135   c20.516-53.035,79.791-91.184,134.556-61.92c35.394,18.136,62.012,61.332,61.998,100.055c0-0.001,0,170.638,0,170.638   C358.255,652.451,368.922,652.726,369.089,645.416L369.089,645.416z"></path>
	<path class="bodyH" d="M321.077,399.513c1.432,31.12-23.422,57.521-54.673,57.432c0,0-20.808,0-20.808,0   c-49.866,0.067-72.547-61.568-38.904-95.88c14.299-2.278,84.322-2.281,98.616,0C315.052,370.953,321.077,384.513,321.077,399.513z"></path>
	<path class="bodyB" d="M455.656,480.417c-17.854-59.34-92.477-104.292-120.325-114.558c-9.772-5.348-16.367-8.296-27.448-9.77   c-0.033-0.032-0.063-0.066-0.096-0.097c-7.845-1.189-25.773-1.847-44.794-1.976c-2.242-0.035-4.548-0.068-6.982-0.101   c-2.437,0.033-4.747,0.067-6.992,0.101c-19.023,0.129-36.955,0.787-44.805,1.975c-0.033,0.032-0.062,0.066-0.095,0.098   c-11.084,1.474-17.68,4.421-27.452,9.771C148.15,376.417,74.069,421.446,56.347,480.419c-8.767,24.695-12.513,53.846-12.515,91.03   c-0.004,37.6,0.003,72.41,0,79.245H468.17c0-6.802,0-41.653,0-79.245C468.167,534.265,464.421,505.114,455.656,480.417z    M209.236,366.146c9.434-0.948,23.487-1.317,46.777-1.627c23.245,0.309,37.289,0.678,46.702,1.622   c8.075,8.812,13.035,20.46,13.038,33.371c1.415,28.179-21.028,52.196-49.347,52.107c-21.758,0.106-39.217,2.054-55.701-14.454   C191.926,419.577,191.468,384.661,209.236,366.146z M105.73,424.61c25.657-23.825,48.618-37.402,75.373-49.151   c5.203-2.788,8.804-4.723,12.609-6.141c-22.298,38.165,2.636,93.112,51.886,92.952c-0.001,0.001,20.807,0.001,20.807,0.001   c34.183,0.086,61.444-28.693,59.998-62.758c0.001-11.057-2.983-21.334-8.167-30.213c3.823,1.419,7.434,3.357,12.658,6.158   c27.538,10.151,98.176,53.074,114.815,108.493c8.204,23.081,11.91,51.001,11.908,87.498c0,25.022,0,56.41,0,68.691H54.494   C55.63,570.715,42.316,481.255,105.73,424.61z"></path>
</g>

<g>
	<path class="baseF" d="M370.823,211.357h-1.083C365.238,142.073,331.823,86.564,256,86.564s-109.237,55.509-113.74,124.793h-1.083   c-14.838-8.773-36.38,8.077-32.988,28.423c7.12,42.713,9.938,53.304,22.629,59.716c6.476,3.272,12.413,3.387,12.413,3.387h1.277   c4.228,26.866,12.675,46.638,23.503,61.72c16.545,23.046,59.074,51.94,87.989,51.94s71.445-28.894,87.989-51.94   c10.828-15.082,19.275-34.854,23.503-61.72h1.277c0,0,5.937-0.115,12.413-3.387c12.689-6.413,15.509-17.004,22.629-59.716   C407.203,219.434,385.661,202.584,370.823,211.357z"></path>
	<path class="baseB" d="M400.198,213.073c-2.749-2.844-5.951-5.161-9.439-6.793c-3.486-1.629-7.276-2.577-11.159-2.578   c-1.71-0.003-3.434,0.222-5.14,0.617c-1.031-11.102-2.802-21.857-5.42-32.084c-6.669-26.051-18.756-48.836-37.452-65.137   c-9.337-8.142-20.307-14.626-32.909-19.04c-12.6-4.418-26.816-6.772-42.68-6.771c-21.149-0.004-39.382,4.191-54.738,11.86   c-23.061,11.495-39.403,30.751-49.784,54.246c-7.548,17.061-12.016,36.394-13.923,56.93c-1.712-0.397-3.443-0.623-5.159-0.621   c-3.884,0.001-7.675,0.949-11.161,2.578c-5.23,2.452-9.827,6.427-13.198,11.446c-3.361,5.014-5.486,11.134-5.486,17.767   c-0.001,1.693,0.138,3.421,0.432,5.166l-0.001-0.011c3.584,21.412,6.032,34.841,9.469,44.399c1.725,4.772,3.763,8.644,6.442,11.822   c2.67,3.182,5.926,5.521,9.544,7.338c7.605,3.814,14.229,3.926,14.689,3.953c0.384,0.007,0.758-0.031,1.12-0.102   c2.368,10.737,4.358,19.607,6.421,27.314c1.962,7.323,4.003,13.631,6.538,19.479c2.532,5.846,5.566,11.212,9.404,16.555   c8.912,12.368,23.386,24.702,39.524,34.221c8.072,4.747,16.557,8.764,25.005,11.623c8.45,2.854,16.864,4.565,24.86,4.571   c7.995-0.006,16.409-1.717,24.859-4.571c12.669-4.291,25.436-11.177,36.735-19.245c11.296-8.082,21.11-17.311,27.791-26.6   c3.839-5.343,6.873-10.709,9.407-16.555c3.804-8.782,6.493-18.557,9.476-31.321c1.098-4.705,2.238-9.833,3.483-15.473   c0.363,0.071,0.737,0.11,1.123,0.103c0.459-0.027,7.083-0.139,14.688-3.953c3.616-1.817,6.873-4.157,9.543-7.338   c2.006-2.378,3.662-5.163,5.084-8.407c2.134-4.876,3.799-10.803,5.479-18.525c1.672-7.721,3.342-17.251,5.35-29.288l0.001-0.009   c0.287-1.735,0.424-3.455,0.423-5.145C409.433,226.637,405.68,218.747,400.198,213.073z M398.606,238.913   c-3.537,21.3-6.057,34.522-8.984,42.541c-1.454,4.017-2.946,6.664-4.587,8.611c-1.651,1.943-3.505,3.332-6.233,4.721   c-2.679,1.356-5.319,2.081-7.245,2.447c-0.568,0.109-1.046,0.18-1.471,0.235c1.566-7.071,3.304-14.837,5.329-23.534   c0.66-2.838-1.105-5.674-3.942-6.335c-2.838-0.661-5.675,1.104-6.335,3.942h-0.001c-6.555,28.163-10.235,47.056-14,61.099   c-1.881,7.023-3.773,12.815-6.028,18.011c-2.257,5.198-4.868,9.82-8.296,14.599c-7.635,10.678-21.253,22.452-36.3,31.279   c-7.522,4.426-15.402,8.142-23.036,10.722c-7.631,2.586-15.015,4.02-21.477,4.015c-6.463,0.005-13.847-1.429-21.478-4.015   c-11.454-3.868-23.448-10.302-33.982-17.834c-10.538-7.518-19.628-16.171-25.356-24.168c-3.427-4.778-6.037-9.401-8.295-14.599   c-3.38-7.785-5.95-16.952-8.88-29.521c-2.934-12.561-6.229-28.464-11.147-49.589c-0.661-2.838-3.498-4.603-6.336-3.942   c-2.837,0.661-4.602,3.497-3.941,6.335c2.021,8.683,3.766,16.476,5.329,23.537c-1.86-0.247-5.259-0.925-8.716-2.685   c-2.729-1.39-4.583-2.779-6.233-4.721c-1.235-1.465-2.374-3.308-3.489-5.845c-1.672-3.796-3.231-9.136-4.827-16.52   c-1.602-7.384-3.257-16.799-5.255-28.788l-0.001-0.011c-0.196-1.154-0.286-2.289-0.287-3.408c-0.007-5.8,2.494-11.167,6.28-15.086   c1.884-1.953,4.071-3.517,6.32-4.565c2.25-1.052,4.545-1.587,6.691-1.586c1.535,0.005,2.991,0.276,4.398,0.831   c-0.209,4.295-0.347,8.618-0.348,12.991c0,2.914,2.363,5.277,5.277,5.277c2.913,0,5.277-2.363,5.277-5.277H147   c0-18.842,1.993-36.867,6.183-53.224c6.291-24.557,17.48-45.262,34.164-59.799c8.352-7.277,18.098-13.049,29.464-17.036   c11.365-3.983,24.364-6.176,39.19-6.177c19.77,0.004,36.28,3.892,50.023,10.749c20.587,10.293,35.194,27.323,44.849,49.076   c9.632,21.732,14.134,48.145,14.128,76.412c0,2.914,2.362,5.277,5.277,5.277c2.913,0,5.277-2.363,5.277-5.277   c0-4.373-0.12-8.705-0.329-12.999c1.402-0.549,2.85-0.819,4.376-0.823c2.146-0.001,4.44,0.533,6.689,1.585   c3.375,1.57,6.598,4.315,8.897,7.759c2.307,3.449,3.701,7.533,3.701,11.893C398.886,236.612,398.796,237.752,398.606,238.913z"></path>
</g>

<g>
	<path class="hairB" d="M386.469,100.32C354.81,52.39,285.072,23.951,241.87,26.654c-30.523,1.908-48.85,20.292-58.201,37.308
		c-25.345,0.485-52.205,22.284-73.004,72.86c-14.487,35.225-4.514,64.545,2.977,76.637c1.942,3.134,5.425,4.959,9.112,4.958l5.634,0
		c3.514,10.355,9.605,28.013,13.445,37.514c5.652,13.985,13.119-16.193,13.119-27.853V210.34
		c7.978-6.647,19.596-17.292,31.491-31.439c7.418,15.536,26.641,24.578,37.017,26.031c1.26,0.176,2.239-1.043,1.805-2.239
		c-2.535-6.984-9.451-26.55-7.58-27.174c2.197-0.732,23.465,23.256,43.368,29.735c1.089,0.355,2.202-0.531,2.204-1.677
		c0.022-11.531,0.013-21.006,0.004-26.148c-0.003-1.433,1.759-2.093,2.699-1.011c6.642,7.646,24.079,26.824,36.198,32.019
		c0.884,0.379,1.857-0.097,2.212-0.991c2.089-5.274,0.967-16.332,0.028-22.903c-0.216-1.509,1.621-2.406,2.655-1.286
		c5.182,5.613,15.286,15.748,24.649,20.45c0.843,0.423,1.843,0.06,2.24-0.795c1.109-2.391,2.298-6.437,3.421-10.918
		c7.513,7.772,14.399,13.941,19.686,18.347v17.738c0,11.66,7.467,41.838,13.12,27.853c3.84-9.502,9.929-27.159,13.444-37.514h5.636
		c3.746,0,7.236-1.908,9.198-5.1c4.432-7.214,11.637-21.459,12.635-38.541C415.366,157.976,408.257,133.306,386.469,100.32z"></path>
</g>


<g>
	<path class="mouthB" d="M281.371,345.627c-3.338,3.246-16.347,5.354-26.05,5.354c-9.703,0-22.712-2.108-26.05-5.354
		c-2.753-2.677-4.397,0.956-1.912,4.206c2.486,3.25,13.575,8.073,27.962,8.073c14.387,0,25.476-4.823,27.962-8.073
		C285.768,346.583,284.124,342.95,281.371,345.627z"></path>
</g>


<g>
	<path class="noseB" d="M248.98,301.597c1.884,0,1.561,3.091,1.842,4.671c0.614,3.436,4.73,2.988,8.142,2.988
		c6.035,0,3.712,4.973,0,4.973c-3.715,0-12.537,1.062-12.537-2.653S245.066,301.597,248.98,301.597z"></path>
</g>


<g>
	<g>
		<g>
			<ellipse class="eyeB" cx="211.023" cy="280.147" rx="13.385" ry="20.695"></ellipse>
			<ellipse class="eyeB" cx="300.979" cy="280.147" rx="13.385" ry="20.695"></ellipse>
		</g>
		<ellipse class="eyeF" cx="211.023" cy="273.58" rx="6.383" ry="7.176"></ellipse>
		<ellipse class="eyeF" cx="300.979" cy="273.58" rx="6.383" ry="7.176"></ellipse>
	</g>
</g>


<g>
	<g>
		<path class="mayugeB" d="M241.662,247.047c-20.854-4.709-40.345-0.683-49.762,3.022s-3.701-16.315,18.499-16.043
			c12.666,0.155,19.116-1.14,24.536,0.912C244.345,238.502,241.662,247.047,241.662,247.047z"></path>
		<path class="mayugeB" d="M270.338,247.047c20.854-4.709,40.345-0.683,49.763,3.022c9.418,3.705,3.701-16.315-18.499-16.043
			c-12.666,0.155-19.116-1.14-24.536,0.912C267.656,238.502,270.338,247.047,270.338,247.047z"></path>
	</g>
</g>

</g></svg>