<?xml version="1.0" encoding="UTF-8"?>
<svg id="_レイヤー_1" data-name="レイヤー_1" xmlns="http://www.w3.org/2000/svg" viewBox="0 0 40.14 14.41">
  <defs>
    <style>
      .cls-1 {
        fill: #fff;
      }
    </style>
  </defs>
  <rect y="8.28" width="40.14" height="6.13"/>
  <g>
    <path class="cls-1" d="M2.66,6.63h.28c.06,1.62.48,2.67,3.02,2.67,1.93,0,2.84-.5,3.17-.5.38,0,.96.22.96.62,0,.31-.13.44-.59.61-.61.2-1.75.38-3.26.38-3.31,0-4.14-1.57-3.57-3.79ZM5.99,3.31c.11-.08.1-.12-.06-.13-1.31-.02-2.27-.14-2.9-1.28l.16-.17c.76.5,1.28.61,2.24.61,1.51,0,1.8-.29,2.34-.29s1.31.32,1.31.7c0,.29-.16.43-.54.5-.36.06-.77.12-1.28.29-.66.2-1.75.67-2.71,1.12l-.13-.2c.53-.36,1.2-.85,1.58-1.14ZM9.76,2.31c-.23-.31-.54-.72-1.08-1.15l.13-.19c.65.22,1.16.47,1.5.78.28.25.37.47.37.71s-.16.37-.37.37c-.19-.01-.34-.22-.55-.52ZM10.85,1.44c-.24-.28-.52-.6-1.1-1.04l.13-.17c.65.17,1.15.37,1.48.62.31.24.42.48.42.74,0,.24-.12.37-.34.37s-.35-.23-.59-.53Z"/>
    <path class="cls-1" d="M18.7,4.68c-.36-.61-1.37-1.62-2.77-2.35l.06-.16c1.2.13,2.04.4,2.61.71.66-.46,1.45-1.08,1.99-1.58h-6.31l-.11-.34h6.61l.72-.66,1.15,1.1c-.1.1-.24.12-.52.13-.79.49-2.17,1.1-3.27,1.5.94.62.92,1.38.55,1.64h2.66l.71-.7,1.2,1.14c-.1.1-.24.13-.5.14-.68.76-1.96,1.76-2.94,2.35l-.11-.1c.53-.67,1.22-1.73,1.63-2.51h-3.15v4.62c0,.83-.24,1.4-1.8,1.52-.04-.37-.13-.66-.36-.84-.25-.18-.61-.32-1.38-.42v-.17s1.73.11,2.05.11c.23,0,.31-.08.31-.25v-4.57h-4.87l-.11-.34h5.94Z"/>
    <path class="cls-1" d="M26.81,6.99v-1.27l-1.39.36c-.07.14-.19.24-.32.25l-.34-1.16,1.42-.06c.71-1.12,1.44-2.57,1.88-3.65l1.46.56c-.06.13-.22.23-.47.19-.59.84-1.51,1.97-2.46,2.87l1.92-.13c-.18-.36-.37-.7-.56-.97l.13-.07c.59.24,1.01.53,1.28.8.6-1.18,1.14-2.95,1.4-4.65l1.58.47c-.05.14-.19.25-.44.25-.22.64-.47,1.24-.76,1.8h2.97l.65-.68,1.15,1c-.1.11-.26.19-.53.22-.12,4.13-.37,6.69-1.04,7.41-.41.42-.92.61-1.68.61,0-.37-.06-.67-.28-.84-.23-.2-.8-.37-1.4-.49v-.18c.65.06,1.66.14,1.97.14.25,0,.36-.05.49-.17.47-.43.7-3.06.8-6.67h-3.3c-.42.76-.91,1.43-1.46,1.94.78.96.1,1.86-.6,1.28-.04-.29-.13-.61-.26-.92l-.78.22v5.37c0,.07-.34.32-.86.32h-.18v-4.06c-.04.11-.17.18-.37.19-.37,1.1-.9,2.16-1.56,2.85l-.18-.11c.36-.86.67-2.15.8-3.35l1.31.32ZM26.01,2.25c.25-.64.52-1.48.72-2.25l1.52.53c-.05.13-.2.24-.47.23-.42.61-.94,1.22-1.44,1.69,1.08.77.47,1.84-.29,1.33-.14-.61-.7-1.33-1.15-1.76l.11-.1c.41.08.73.2,1,.34ZM28.81,8.94c-.04-.74-.4-1.67-.73-2.29l.14-.07c2.53,1.31,1.5,3.21.59,2.36ZM31.79,7.11c-.06-.86-.59-1.9-1.07-2.58l.13-.07c3,1.31,1.97,3.56.94,2.65Z"/>
  </g>
</svg>